<svg version="1.2" xmlns="http://www.w3.org/2000/svg" viewBox="0 0 1624 1318" width="1624" height="1318">
	<title>Tiny man checking to do list via laptop-ai</title>
	<style>
		.s0 {
			fill: #5da6c7
		}

		.s1 {
			fill: #197ca3
		}

		.s2 {
			fill: #0d3342
		}

		.s3 {
			fill: #c6383f
		}

		.s4 {
			fill: #fcfefe
		}

		.s5 {
			fill: #f7cc7f
		}

		.s6 {
			fill: #ff4f52
		}

		.s7 {
			fill: #466eb6
		}

		.s8 {
			fill: #6a35ff
		}

		.s9 {
			fill: #e8f3f7
		}

		.s10 {
			fill: #082330
		}

		.s11 {
			fill: #f7a491
		}

		.s12 {
			fill: #ffd5bd
		}

		.s13 {
			fill: #e2bda6
		}

		.s14 {
			fill: #14142b
		}

		.s15 {
			fill: #ff97b8
		}
	</style>
	<g id="Layer 1">
		<g id="&lt;Group&gt;">
			<g id="&lt;Group&gt;">
				<g id="&lt;Group&gt;">
					<path id="&lt;Path&gt;" class="s0"
						d="m527 146.6l-26.9-11.8-6.1 18.6-8.8-2.9 9.3-28.4 26.7 11.7 6.8-21.9 24.5 10.2 10.1-21.5 8.5 3.9-13.9 29.7-23.3-9.7z" />
				</g>
				<path id="&lt;Compound Path&gt;" fill-rule="evenodd" class="s1"
					d="m807.5 184.3c15.5 0 25.6 16.2 25.6 32.2v48.2h-64.4v-48.2c0-17.8 14.4-32.2 32.2-32.2 1.8 0 4.9 0 6.6 0zm6.1 28.1c0-7-5.7-12.7-12.7-12.7-7 0-12.7 5.7-12.7 12.7 0 7 5.7 12.7 12.7 12.7 7 0 12.7-5.7 12.7-12.7z" />
				<path id="&lt;Path&gt;" class="s2"
					d="m1603.7 1259.7h-1467.6c-3.2 0-5.8 9.2-5.8 20.6 0 11.4 2.6 20.6 5.8 20.6h1467.6c3.2 0 5.8-9.2 5.8-20.6 0-11.4-2.6-20.6-5.8-20.6z" />
				<path id="&lt;Compound Path&gt;" fill-rule="evenodd" class="s1"
					d="m1266.9 492.3c0.3 1.7 1.5 3.1 3.2 3.6 8.3 2.4 19.4 13.1 24.4 19.2l-13.9 38.4c-7.7 1.5-23.1 2.6-31-0.8-1.6-0.7-3.5-0.4-4.8 0.7l-24.6 20.7c-1.3 1.2-1.9 3-1.5 4.7 2.1 8.3-1.6 23.3-4.4 30.7l-40.2 7.2c-5.2-6-13.8-18.7-14.8-27.3-0.2-1.7-1.4-3.2-3-3.8l-30.3-10.9c-1.6-0.6-3.5-0.2-4.7 1-6.3 5.9-21.1 10.2-28.8 11.5l-26.4-31.3c2.6-7.4 9.3-21.3 16.2-26.4 1.4-1 2.1-2.8 1.8-4.5l-5.6-31.7c-0.3-1.7-1.6-3.1-3.3-3.6-8.3-2.4-19.4-13-24.4-19.1l13.9-38.5c7.7-1.5 23.1-2.6 31 0.8 1.6 0.7 3.5 0.5 4.8-0.7l24.6-20.7c1.4-1.1 1.9-2.9 1.5-4.6-2-8.4 1.6-23.4 4.4-30.7l40.3-7.3c5.1 6 13.8 18.8 14.7 27.3 0.2 1.8 1.4 3.3 3.1 3.8l30.2 11c1.7 0.6 3.5 0.2 4.8-1 6.2-6 21-10.3 28.8-11.6l26.3 31.3c-2.5 7.4-9.3 21.3-16.2 26.4-1.4 1-2.1 2.8-1.8 4.5zm-43.6-42.1c-23.6-27.9-65.3-31.5-93.2-7.9-28 23.5-31.5 65.3-8 93.2 23.6 27.9 65.3 31.5 93.2 7.9 28-23.5 31.5-65.3 8-93.2zm-24.6 73.5c-17 14.3-42.5 12.1-56.8-4.9-14.4-17-12.2-42.4 4.8-56.8 17-14.3 42.5-12.1 56.8 4.9 14.4 17 12.2 42.4-4.8 56.8z" />
				<path id="&lt;Compound Path&gt;" fill-rule="evenodd" class="s3"
					d="m1107 134.7c1.4 1.2 3.3 1.5 4.9 0.9 8.1-3.3 23.8-1.8 31.6 0l13 39.5c-5.2 6.1-16.8 16.6-25.3 18.8-1.8 0.5-3.1 1.9-3.4 3.6l-6.7 32.1c-0.4 1.7 0.3 3.5 1.7 4.6 6.9 5.4 13.4 19.7 15.8 27.4l-27.7 31.1c-7.9-1.6-22.9-6.4-29-12.6-1.3-1.3-3.1-1.7-4.8-1.2l-31.1 10.3c-1.7 0.5-3 2-3.2 3.8-1.2 8.7-10.4 21.4-15.8 27.3l-40.8-8.4c-2.6-7.6-5.9-23-3.6-31.4 0.5-1.7-0.1-3.6-1.4-4.8l-24.4-21.8c-1.4-1.2-3.2-1.5-4.9-0.8-8.1 3.3-23.7 1.7-31.6 0l-13-39.6c5.2-6 16.9-16.6 25.3-18.8 1.8-0.4 3.1-1.8 3.5-3.6l6.6-32c0.4-1.8-0.3-3.6-1.7-4.7-6.9-5.4-13.4-19.7-15.8-27.3l27.8-31.1c7.8 1.5 22.8 6.3 28.9 12.6 1.3 1.2 3.1 1.7 4.8 1.1l31.1-10.2c1.7-0.6 3-2.1 3.2-3.9 1.2-8.6 10.4-21.4 15.8-27.3l40.8 8.5c2.6 7.6 5.9 22.9 3.6 31.3-0.5 1.8 0.1 3.6 1.4 4.8zm-61.4-6.3c-36.5-7.6-72.1 15.8-79.7 52.2-7.5 36.4 15.9 72.1 52.3 79.7 36.4 7.5 72-15.9 79.6-52.3 7.6-36.4-15.8-72-52.2-79.6zm26.4 74.3c-4.6 22.2-26.3 36.4-48.5 31.8-22.2-4.6-36.4-26.3-31.8-48.5 4.6-22.2 26.3-36.5 48.5-31.8 22.2 4.6 36.4 26.3 31.8 48.5z" />
				<g id="&lt;Group&gt;">
					<path id="&lt;Compound Path&gt;" fill-rule="evenodd" class="s0"
						d="m1442.9 211.6l-0.8 46.2c-7.7 4.4-23.7 11.1-33.4 10.3-2-0.1-3.9 0.9-4.9 2.6l-18.7 31.1c-1 1.7-1 3.8 0.1 5.5 5.2 8.1 6.7 25.5 6.5 34.4l-40.4 22.4c-7.7-4.5-21.6-15-25.7-23.8-0.9-1.8-2.7-2.9-4.7-3l-36.3-0.6c-2-0.1-3.8 1-4.7 2.8-4.4 8.6-18.7 18.6-26.5 22.8l-39.6-23.8c0-8.9 2.2-26.1 7.7-34.1 1.1-1.6 1.2-3.8 0.3-5.5l-17.6-31.8c-1-1.7-2.9-2.8-4.8-2.7-9.7 0.5-25.5-6.8-33.1-11.5l0.8-46.2c7.8-4.4 23.8-11.2 33.5-10.4 1.9 0.2 3.8-0.8 4.9-2.5l18.7-31.1c1-1.7 1-3.9-0.1-5.5-5.3-8.2-6.8-25.5-6.5-34.4l40.4-22.4c7.7 4.5 21.6 14.9 25.7 23.7 0.9 1.8 2.7 3 4.6 3l36.3 0.7c2 0 3.9-1.1 4.8-2.9 4.4-8.6 18.7-18.6 26.5-22.8l39.6 23.8c-0.1 8.9-2.2 26.2-7.7 34.2-1.2 1.6-1.3 3.7-0.3 5.5l17.6 31.7c1 1.7 2.8 2.8 4.8 2.7 9.7-0.5 25.5 6.9 33 11.6zm-136.9-54c-41.3-0.8-75.3 32.1-76 73.3-0.8 41.2 32.1 75.3 73.3 76 41.2 0.7 75.3-32.1 76-73.4 0.7-41.2-32.1-75.2-73.3-75.9z" />
					<path id="&lt;Path&gt;" class="s0"
						d="m1305.4 186.7c-25.1-0.4-45.8 19.6-46.3 44.7-0.4 25.1 19.6 45.9 44.7 46.3 25.2 0.5 45.9-19.6 46.3-44.7 0.5-25.1-19.5-45.8-44.7-46.3z" />
				</g>
				<g id="&lt;Group&gt;">
					<path id="&lt;Path&gt;" class="s4"
						d="m113.6 158.3l-6.6-15-16.8-0.4-6.2-17.3-17.9 5.1-7.9-19.4-17.1 2.7-10.6-17.4 6.6-4 7.9 13 18.1-2.8 7.5 18.6 18.3-5.2 6.8 19.1 16.3 0.4 6.2 13.9 10.7-2 1.4 7.6z" />
					<path id="&lt;Path&gt;" class="s4"
						d="m1226.2 906.9l-2.2-16.3-16-4.9-1.3-18.4-18.7 0.1-2.3-20.8-17.2-2-5.5-19.6 7.4-2.1 4.1 14.6 18.2 2.2 2.2 20 19-0.1 1.4 20.3 15.6 4.8 2.1 15 10.9 1-0.7 7.7z" />
					<path id="&lt;Path&gt;" class="s5"
						d="m1344.8 1071.8l-6.7-5.9-8.6 2.2c-1 0.3-1.8-0.7-1.4-1.6l3.5-8.2-4.8-7.6c-0.5-0.8 0.2-1.9 1.2-1.8l8.8 0.8 5.7-6.9c0.7-0.8 2-0.5 2.2 0.5l1.9 8.7 8.3 3.3c1 0.4 1.1 1.7 0.2 2.2l-7.7 4.6-0.5 8.9c-0.1 1-1.3 1.5-2.1 0.8z" />
					<path id="&lt;Path&gt;" class="s6"
						d="m459.8 91.2l-12-10.5-15.3 4c-1.8 0.4-3.3-1.4-2.6-3l6.3-14.6-8.5-13.4c-1-1.6 0.2-3.5 2-3.4l15.8 1.5 10.2-12.2c1.2-1.4 3.4-0.9 3.8 0.9l3.5 15.4 14.8 5.9c1.6 0.7 1.8 3 0.3 3.9l-13.7 8.2-1 15.8c-0.1 1.8-2.3 2.7-3.6 1.5z" />
					<path id="&lt;Path&gt;" class="s2"
						d="m658.1 210.2l-12-10.4-15.4 3.9c-1.7 0.4-3.2-1.3-2.5-3l6.3-14.6-8.5-13.4c-1-1.6 0.2-3.5 2-3.4l15.8 1.5 10.2-12.2c1.1-1.4 3.4-0.9 3.8 0.9l3.5 15.5 14.7 5.8c1.7 0.7 1.9 3 0.4 3.9l-13.7 8.2-1 15.8c-0.1 1.8-2.3 2.7-3.6 1.5z" />
					<path id="&lt;Path&gt;" class="s7"
						d="m1242.9 1173.1l-11.9-10.5-15.4 4c-1.8 0.4-3.3-1.4-2.5-3l6.2-14.6-8.5-13.4c-0.9-1.6 0.3-3.5 2.1-3.4l15.8 1.5 10.1-12.2c1.2-1.4 3.4-0.9 3.8 0.9l3.6 15.5 14.7 5.8c1.7 0.7 1.9 3 0.3 3.9l-13.6 8.2-1.1 15.8c-0.1 1.8-2.2 2.7-3.6 1.5z" />
					<path id="&lt;Path&gt;" class="s6"
						d="m154 244.1l-29 0.7-2.2 21.4-28.6 1.7-5.3 20.3-21.3 4 2.1 8.5 28.5-5.4 5-19.3 29.7-1.8 2.2-21 26.3-0.6z" />
				</g>
				<path id="&lt;Path&gt;" class="s6"
					d="m1189.2 328.5v874.2c0 35-28.4 63.4-63.4 63.4h-662.7c-35.1 0-63.5-28.4-63.5-63.4v-874.2c0-35 28.4-63.4 63.5-63.4h662.7c35 0 63.4 28.4 63.4 63.4z" />
				<path id="&lt;Path&gt;" class="s4"
					d="m1135.6 397.3v759.2c0 35.4-28.7 64.2-64.2 64.2h-553.9c-35.5 0-64.3-28.8-64.3-64.2v-759.2c0-35.5 28.8-64.2 64.3-64.2h553.9c35.5 0 64.2 28.7 64.2 64.2z" />
				<g id="&lt;Group&gt;">
					<path id="Layer" fill-rule="evenodd" class="s8"
						d="m598.2 945.3c9.1 8.3 14.9 19.5 15.7 32 0.5 9.1-1.6 18.2-6.2 26.1-4.5 8.3-11.2 14.5-19.5 18.7-8.3 4.1-17.4 5.8-26.5 4.6-9.2-1.3-17.9-5-24.5-11.2-7.1-5.9-12.1-13.7-14.6-22.9-2.5-8.7-2-18.2 0.9-27 2.9-8.7 8.3-16.1 15.3-21.9 7.5-5.4 16.2-8.8 25.3-9.6 12.5-0.8 24.5 3.3 34.1 11.2zm-4.2 17q0-0.4 0-1.2-0.4-0.8-0.8-1.7-0.4-0.4-1.2-0.8-0.5-0.4-1.3-0.8-0.8 0-1.7 0-0.8 0.4-1.2 0.8-0.8 0.4-1.2 1.2l-21.6 34.5-16.6-11.6q-0.9-0.4-1.7-0.9-0.4 0-1.2 0-1.7 0.5-2.5 1.7-0.9 1.7-0.9 2.9 0.5 0.8 0.9 1.7 0.4 0.4 0.8 0.8l19.9 14.1q0.9 0.4 1.7 0.4 0.8 0 1.2 0 0.9 0 1.7-0.4 0.4-0.8 0.8-1.2l24.1-37.8q0.4-0.8 0.8-1.7z" />
					<path id="Layer copy 3" fill-rule="evenodd" class="s8"
						d="m598.2 806.3c9.1 8.3 14.9 19.5 15.7 32 0.5 9.1-1.6 18.2-6.2 26.1-4.5 8.3-11.2 14.5-19.5 18.7-8.3 4.1-17.4 5.8-26.5 4.6-9.2-1.3-17.9-5-24.5-11.2-7.1-5.9-12.1-13.7-14.6-22.9-2.5-8.7-2-18.2 0.9-27 2.9-8.7 8.3-16.1 15.3-21.9 7.5-5.4 16.2-8.8 25.3-9.6 12.5-0.8 24.5 3.3 34.1 11.2zm-4.2 17q0-0.4 0-1.2-0.4-0.8-0.8-1.7-0.4-0.4-1.2-0.8-0.5-0.4-1.3-0.8-0.8 0-1.7 0-0.8 0.4-1.2 0.8-0.8 0.4-1.2 1.2l-21.6 34.5-16.6-11.6q-0.9-0.4-1.7-0.9-0.4 0-1.2 0-1.7 0.5-2.5 1.7-0.9 1.7-0.9 2.9 0.5 0.8 0.9 1.7 0.4 0.4 0.8 0.8l19.9 14.1q0.9 0.4 1.7 0.4 0.8 0 1.2 0 0.9 0 1.7-0.4 0.4-0.8 0.8-1.2l24.1-37.8q0.4-0.8 0.8-1.7z" />
					<path id="Layer copy 2" fill-rule="evenodd" class="s8"
						d="m598.2 668.3c9.1 8.3 14.9 19.5 15.7 32 0.5 9.1-1.6 18.2-6.2 26.1-4.5 8.3-11.2 14.5-19.5 18.7-8.3 4.1-17.4 5.8-26.5 4.6-9.2-1.3-17.9-5-24.5-11.2-7.1-5.9-12.1-13.7-14.6-22.9-2.5-8.7-2-18.2 0.9-27 2.9-8.7 8.3-16.1 15.3-21.9 7.5-5.4 16.2-8.8 25.3-9.6 12.5-0.8 24.5 3.3 34.1 11.2zm-4.2 17q0-0.4 0-1.2-0.4-0.8-0.8-1.7-0.4-0.4-1.2-0.8-0.5-0.4-1.3-0.8-0.8 0-1.7 0-0.8 0.4-1.2 0.8-0.8 0.4-1.2 1.2l-21.6 34.5-16.6-11.6q-0.9-0.4-1.7-0.9-0.4 0-1.2 0-1.7 0.5-2.5 1.7-0.9 1.7-0.9 2.9 0.5 0.8 0.9 1.7 0.4 0.4 0.8 0.8l19.9 14.1q0.9 0.4 1.7 0.4 0.8 0 1.2 0 0.9 0 1.7-0.4 0.4-0.8 0.8-1.2l24.1-37.8q0.4-0.8 0.8-1.7z" />
					<path id="Layer copy" fill-rule="evenodd" class="s8"
						d="m598.2 526.3c9.1 8.3 14.9 19.5 15.7 32 0.5 9.1-1.6 18.2-6.2 26.1-4.5 8.3-11.2 14.5-19.5 18.7-8.3 4.1-17.4 5.8-26.5 4.6-9.2-1.3-17.9-5-24.5-11.2-7.1-5.9-12.1-13.7-14.6-22.9-2.5-8.7-2-18.2 0.9-27 2.9-8.7 8.3-16.1 15.3-21.9 7.5-5.4 16.2-8.8 25.3-9.6 12.5-0.8 24.5 3.3 34.1 11.2zm-4.2 17q0-0.4 0-1.2-0.4-0.8-0.8-1.7-0.4-0.4-1.2-0.8-0.5-0.4-1.3-0.8-0.8 0-1.7 0-0.8 0.4-1.2 0.8-0.8 0.4-1.2 1.2l-21.6 34.5-16.6-11.6q-0.9-0.4-1.7-0.9-0.4 0-1.2 0-1.7 0.5-2.5 1.7-0.9 1.7-0.9 2.9 0.5 0.8 0.9 1.7 0.4 0.4 0.8 0.8l19.9 14.1q0.9 0.4 1.7 0.4 0.8 0 1.2 0 0.9 0 1.7-0.4 0.4-0.8 0.8-1.2l24.1-37.8q0.4-0.8 0.8-1.7z" />
				</g>
				<g id="&lt;Group&gt;">
					<path id="&lt;Path&gt;" class="s0"
						d="m1039.3 541.6h-399.6c-2.4 0-4.4-1.9-4.4-4.3 0-2.4 2-4.3 4.4-4.3h399.6c2.4 0 4.3 1.9 4.3 4.3 0 2.4-1.9 4.3-4.3 4.3z" />
					<path id="&lt;Path&gt;" class="s0"
						d="m1039.3 566.8h-399.6c-2.4 0-4.4-2-4.4-4.4 0-2.3 2-4.3 4.4-4.3h399.6c2.4 0 4.3 2 4.3 4.3 0 2.4-1.9 4.4-4.3 4.4z" />
					<path id="&lt;Path&gt;" class="s0"
						d="m837 583.2h-197.1c-2.3 0-4.3 1.7-4.5 4-0.3 2.5 1.7 4.7 4.3 4.7h197.3c2.4 0 4.3-1.9 4.3-4.3 0-2.4-1.9-4.4-4.3-4.4z" />
				</g>
				<g id="&lt;Group&gt;">
					<path id="&lt;Path&gt;" class="s0"
						d="m1041.1 689.3h-399.6c-2.4 0-4.3-1.9-4.3-4.3 0-2.4 1.9-4.3 4.3-4.3h399.6c2.4 0 4.3 1.9 4.3 4.3 0 2.4-1.9 4.3-4.3 4.3z" />
					<path id="&lt;Path&gt;" class="s0"
						d="m1041.1 714.5h-399.6c-2.4 0-4.3-2-4.3-4.4 0-2.4 1.9-4.3 4.3-4.3h399.6c2.4 0 4.3 1.9 4.3 4.3 0 2.4-1.9 4.4-4.3 4.4z" />
					<path id="&lt;Path&gt;" class="s0"
						d="m838.8 730.9h-197.1c-2.3 0-4.3 1.7-4.5 3.9-0.3 2.6 1.8 4.8 4.3 4.8h197.3c2.4 0 4.3-2 4.3-4.3 0-2.4-1.9-4.4-4.3-4.4z" />
				</g>
				<g id="&lt;Group&gt;">
					<path id="&lt;Path&gt;" class="s0"
						d="m1039.3 821.7h-399.6c-2.4 0-4.4-2-4.4-4.4 0-2.4 2-4.3 4.4-4.3h399.6c2.4 0 4.3 1.9 4.3 4.3 0 2.4-1.9 4.4-4.3 4.4z" />
					<path id="&lt;Path&gt;" class="s0"
						d="m1039.3 846.8h-399.6c-2.4 0-4.4-1.9-4.4-4.3 0-2.4 2-4.4 4.4-4.4h399.6c2.4 0 4.3 2 4.3 4.4 0 2.4-1.9 4.3-4.3 4.3z" />
					<path id="&lt;Path&gt;" class="s0"
						d="m837 863.3h-197.1c-2.3 0-4.3 1.6-4.5 3.9-0.3 2.5 1.7 4.7 4.3 4.7h197.3c2.4 0 4.3-1.9 4.3-4.3 0-2.4-1.9-4.3-4.3-4.3z" />
				</g>
				<g id="&lt;Group&gt;">
					<path id="&lt;Path&gt;" class="s0"
						d="m1041.1 962.1h-399.6c-2.4 0-4.3-2-4.3-4.3 0-2.4 1.9-4.4 4.3-4.4h399.6c2.4 0 4.3 2 4.3 4.4 0 2.3-1.9 4.3-4.3 4.3z" />
					<path id="&lt;Path&gt;" class="s0"
						d="m1041.1 987.2h-399.6c-2.4 0-4.3-1.9-4.3-4.3 0-2.4 1.9-4.3 4.3-4.3h399.6c2.4 0 4.3 1.9 4.3 4.3 0 2.4-1.9 4.3-4.3 4.3z" />
					<path id="&lt;Path&gt;" class="s0"
						d="m838.8 1003.7h-197.1c-2.3 0-4.3 1.6-4.5 3.9-0.3 2.6 1.8 4.7 4.3 4.7h197.3c2.4 0 4.3-1.9 4.3-4.3 0-2.4-1.9-4.3-4.3-4.3z" />
				</g>
				<path id="&lt;Path&gt;" class="s3" d="m647.4 333.1h254.8l-2.6-68h-249.5z" />
				<path id="&lt;Path&gt;" class="s0" d="m928.3 333.1h-254.8l3.9-75.4h247z" />
				<path id="&lt;Compound Path&gt;" fill-rule="evenodd" class="s0"
					d="m839.2 216.5v48.2h-64.4v-48.2c0-17.8 14.4-32.2 32.2-32.2 17.8 0 32.2 14.4 32.2 32.2zm-19.5-4.1c0-7-5.7-12.7-12.7-12.7-7 0-12.7 5.7-12.7 12.7 0 7 5.7 12.7 12.7 12.7 7 0 12.7-5.7 12.7-12.7z" />
				<g id="&lt;Group&gt;">
					<path id="&lt;Path&gt;" class="s0"
						d="m402.6 313c-54.2 33.9-125.9 17.4-159.8-36.9-34-54.2-17.4-125.9 36.8-159.8 54.3-33.9 126-17.4 159.9 36.9 33.9 54.2 17.3 125.9-36.9 159.8z" />
					<path id="&lt;Path&gt;" class="s0"
						d="m401 310.5c-52.8 33-122.7 16.9-155.7-36-33-52.8-16.9-122.6 35.9-155.6 52.8-33.1 122.7-17 155.7 35.9 33 52.8 16.9 122.6-35.9 155.7z" />
					<path id="&lt;Path&gt;" class="s4"
						d="m419.6 166.2c27 43.2 13.9 100.1-29.3 127.1-43.2 27-100.1 13.9-127.1-29.3-27-43.2-13.9-100.1 29.3-127.1 43.2-27 100.1-13.9 127.1 29.3z" />
					<path id="&lt;Path&gt;" class="s4"
						d="m387.5 288.9c-40.9 25.5-95 13-120.5-27.8-25.6-40.9-13.1-95 27.8-120.6 40.9-25.5 94.9-13 120.5 27.8 25.6 40.9 13.1 95-27.8 120.6z" />
					<g id="&lt;Group&gt;">
						<path id="&lt;Path&gt;" class="s0"
							d="m274.5 250.9l-13.3 8.3c-2.2 1.3-2.8 4.2-1.5 6.4 1.4 2.2 4.3 2.8 6.5 1.5l13.2-8.3c2.2-1.4 2.9-4.3 1.5-6.5-1.3-2.1-4.2-2.8-6.4-1.4z" />
						<path id="&lt;Path&gt;" class="s0"
							d="m378.8 274.9c-2.2 1.4-2.9 4.3-1.5 6.4l8.3 13.3c1.4 2.2 4.3 2.9 6.4 1.5 2.2-1.4 2.9-4.2 1.5-6.4l-8.3-13.3c-1.3-2.2-4.2-2.8-6.4-1.5z" />
						<path id="&lt;Path&gt;" class="s0"
							d="m416.1 162.3l-13.3 8.3c-2.1 1.4-2.8 4.3-1.4 6.5 1.3 2.1 4.2 2.8 6.4 1.4l13.3-8.3c2.1-1.3 2.8-4.2 1.4-6.4-1.3-2.2-4.2-2.8-6.4-1.5z" />
						<path id="&lt;Path&gt;" class="s0"
							d="m290.2 133.3c-2.1 1.4-2.8 4.2-1.4 6.4l8.3 13.3c1.3 2.2 4.2 2.8 6.4 1.5 2.2-1.4 2.8-4.3 1.5-6.4l-8.3-13.3c-1.4-2.2-4.3-2.9-6.5-1.5z" />
					</g>
					<g id="&lt;Group&gt;">
						<path id="&lt;Path&gt;" class="s0"
							d="m315.9 89.3l-1.6-18.3c-0.2-1.5 0.9-2.8 2.4-3l21-1.9c1.5-0.1 2.8 1 3 2.5l1.6 18.3c0.2 1.5-0.9 2.8-2.4 2.9l-21 2c-1.5 0.1-2.8-1-3-2.5z" />
					</g>
					<g id="&lt;Group&gt;">
						<path id="&lt;Path&gt;" class="s0"
							d="m240.7 136.9l-15.7-9.5c-1.3-0.8-3-0.4-3.8 0.9l-10.9 18c-0.8 1.3-0.4 3 0.9 3.7l15.7 9.6c1.3 0.7 3 0.3 3.8-1l10.9-18c0.8-1.2 0.4-2.9-0.9-3.7z" />
					</g>
					<g id="&lt;Group&gt;">
						<path id="&lt;Path&gt;" class="s0"
							d="m258.1 103.6c-1.3 0.8-2.9 0.4-3.7-0.8l-7-11.2c-0.8-1.2-0.4-2.9 0.8-3.7l22.9-14.3c1.2-0.7 2.9-0.4 3.7 0.9l7 11.2c0.7 1.2 0.4 2.9-0.9 3.6z" />
						<path id="&lt;Path&gt;" class="s0"
							d="m265.2 106.9c-11.8 2.9-24.6-1.9-31.4-12.8-8.5-13.6-4.4-31.5 9.2-40 13.6-8.5 31.5-4.4 40 9.2 6.8 10.9 5.5 24.6-2.3 33.9l3.8 6.1c10.9-11.6 13.1-29.5 4.3-43.6-10.5-16.8-32.7-21.9-49.5-11.4-16.8 10.5-21.9 32.7-11.4 49.5 8.8 14.1 25.9 19.9 41.1 15.2z" />
						<path id="&lt;Path&gt;" class="s0"
							d="m278.4 114.3q4-2.5 8.1-4.6l-10.1-16.2-12.6 7.9 10 16q2.2-1.6 4.6-3.1z" />
					</g>
					<g id="&lt;Group&gt;">
						<path id="&lt;Path&gt;" class="s6"
							d="m348.3 210c2.5 4 1.3 9.3-2.7 11.7-4 2.5-9.2 1.3-11.7-2.7-2.5-3.9-1.3-9.2 2.7-11.7 4-2.5 9.2-1.3 11.7 2.7z" />
						<path id="&lt;Path&gt;" class="s6"
							d="m338.8 144.4l5.3 70c0.1 1.8-1.2 3.3-3 3.4-1.7 0.2-3.3-1.2-3.4-2.9 0-0.3 0 2.8 1.1-70.5z" />
						<path id="&lt;Path&gt;" class="s6"
							d="m407.4 238.8l-67-21c-1.7-0.5-2.6-2.3-2.1-4 0.5-1.7 2.3-2.6 4-2.1 0.3 0.1-2.6-1.1 65.1 27.1z" />
						<path id="&lt;Path&gt;" class="s4"
							d="m344 212.7c1.1 1.6 0.6 3.8-1.1 4.8-1.6 1-3.7 0.5-4.7-1.1-1.1-1.7-0.6-3.8 1.1-4.8 1.6-1 3.7-0.5 4.7 1.1z" />
					</g>
				</g>
				<g id="&lt;Group&gt;">
					<g id="&lt;Group&gt;">
						<path id="&lt;Path&gt;" class="s1"
							d="m1562.5 1221.3v52c0 8.5-94 15.3-209.8 15.3-115.9 0-209.8-6.8-209.8-15.3v-52z" />
						<g id="&lt;Group&gt;">
							<path id="&lt;Path&gt;" class="s0"
								d="m1410.7 1288v-66.7h151.8v52c0 7-64.2 12.9-151.8 14.7z" />
							<path id="&lt;Path&gt;" class="s0"
								d="m1403.6 1288.1c-16.3 0.3-33.4 0.5-50.9 0.5-26.2 0-51.2-0.4-74.3-1v-66.3h125.2z" />
							<path id="&lt;Path&gt;" class="s0"
								d="m1270 1287.3c-74.8-2.3-127.1-7.7-127.1-14v-52h127.1z" />
						</g>
						<path id="&lt;Path&gt;" class="s1"
							d="m1142.9 1220.7c0 8.4 93.9 15.2 209.8 15.2 115.8 0 209.8-6.8 209.8-15.2 0-8.4-94-15.2-209.8-15.2-115.9 0-209.8 6.8-209.8 15.2z" />
						<path id="&lt;Path&gt;" class="s9"
							d="m1179.9 1220.7c0 5.8 77.4 10.6 172.8 10.6 95.4 0 172.7-4.8 172.7-10.6 0-5.8-77.3-10.6-172.7-10.6-95.4 0-172.8 4.8-172.8 10.6z" />
					</g>
					<g id="&lt;Group&gt;">
						<path id="&lt;Path&gt;" class="s1"
							d="m1504.5 1166.1v52.1c0 8.4-93.9 15.3-209.8 15.3-115.8 0-209.8-6.9-209.8-15.3v-52.1z" />
						<g id="&lt;Group&gt;">
							<path id="&lt;Path&gt;" class="s0"
								d="m1352.7 1232.9v-66.8h151.8v52.1c0 7-64.1 12.8-151.8 14.7z" />
							<path id="&lt;Path&gt;" class="s0"
								d="m1345.6 1233c-16.3 0.3-33.3 0.5-50.9 0.5-26.1 0-51.2-0.4-74.3-1v-66.4h125.2z" />
							<path id="&lt;Path&gt;" class="s0"
								d="m1212 1232.2c-74.7-2.3-127.1-7.7-127.1-14v-52.1h127.1z" />
						</g>
						<path id="&lt;Path&gt;" class="s1"
							d="m1084.9 1165.6c0 8.4 94 15.2 209.8 15.2 115.9 0 209.8-6.8 209.8-15.2 0-8.4-93.9-15.3-209.8-15.3-115.8 0-209.8 6.9-209.8 15.3z" />
						<path id="&lt;Path&gt;" class="s9"
							d="m1122 1165.6c0 5.8 77.3 10.6 172.7 10.6 95.4 0 172.8-4.8 172.8-10.6 0-5.8-77.4-10.6-172.8-10.6-95.4 0-172.7 4.8-172.7 10.6z" />
					</g>
					<g id="&lt;Group&gt;">
						<path id="&lt;Path&gt;" class="s1"
							d="m1556.5 1109.6v52c0 8.5-94 15.3-209.8 15.3-115.9 0-209.8-6.8-209.8-15.3v-52z" />
						<g id="&lt;Group&gt;">
							<path id="&lt;Path&gt;" class="s0"
								d="m1404.6 1176.3v-66.7h151.9v52c0 7-64.2 12.9-151.9 14.7z" />
							<path id="&lt;Path&gt;" class="s0"
								d="m1397.6 1176.4c-16.3 0.3-33.4 0.5-50.9 0.5-26.2 0-51.2-0.4-74.3-1v-66.3h125.2z" />
							<path id="&lt;Path&gt;" class="s0"
								d="m1264 1175.7c-74.8-2.4-127.1-7.8-127.1-14.1v-52h127.1z" />
						</g>
						<path id="&lt;Path&gt;" class="s1"
							d="m1136.9 1109c0 8.4 93.9 15.3 209.8 15.3 115.8 0 209.8-6.9 209.8-15.3 0-8.4-94-15.2-209.8-15.2-115.9 0-209.8 6.8-209.8 15.2z" />
						<path id="&lt;Path&gt;" class="s9"
							d="m1173.9 1109c0 5.9 77.4 10.6 172.8 10.6 95.4 0 172.7-4.7 172.7-10.6 0-5.8-77.3-10.6-172.7-10.6-95.4 0-172.8 4.8-172.8 10.6z" />
					</g>
					<g id="&lt;Group&gt;">
						<path id="&lt;Path&gt;" class="s1"
							d="m1504.5 1053.8v52c0 8.5-93.9 15.3-209.8 15.3-115.8 0-209.8-6.8-209.8-15.3v-52z" />
						<g id="&lt;Group&gt;">
							<path id="&lt;Path&gt;" class="s0"
								d="m1352.7 1120.5v-66.7h151.8v52c0 7-64.1 12.9-151.8 14.7z" />
							<path id="&lt;Path&gt;" class="s0"
								d="m1345.6 1120.6c-16.3 0.3-33.3 0.5-50.9 0.5-26.1 0-51.2-0.4-74.3-1v-66.3h125.2z" />
							<path id="&lt;Path&gt;" class="s0"
								d="m1212 1119.9c-74.7-2.4-127.1-7.8-127.1-14.1v-52h127.1z" />
						</g>
						<path id="&lt;Path&gt;" class="s1"
							d="m1084.9 1053.2c0 8.4 94 15.3 209.8 15.3 115.9 0 209.8-6.9 209.8-15.3 0-8.4-93.9-15.2-209.8-15.2-115.8 0-209.8 6.8-209.8 15.2z" />
						<path id="&lt;Path&gt;" class="s9"
							d="m1122 1053.2c0 5.9 77.3 10.6 172.7 10.6 95.4 0 172.8-4.7 172.8-10.6 0-5.8-77.4-10.6-172.8-10.6-95.4 0-172.7 4.8-172.7 10.6z" />
					</g>
					<g id="&lt;Group&gt;">
						<path id="&lt;Path&gt;" class="s10"
							d="m1265.6 572.2c4.5-1.5 8.9-3.2 13.2-5.3 4.8-2.3 11-5 15-5.6 8.3-1.3 22.5-0.4 30.4 8.1 9.8 10.6 27.3 1.9 23.7 57.5-3.9 62.9-39 55.9-39.9 54.9-0.8-1.1-31.3-40.3-31.3-40.3 0 0-10.6 23.3-10.6 22.4 0-0.8-54.4-73.6-0.5-91.7z" />
						<path id="&lt;Path&gt;" class="s11"
							d="m1123.7 1227.2c0 0-5 26.4-5 26.5-0.3 3.4-0.2 12.2-0.9 15.2-2.8 11.3-50.4-16.2-38-18.4 1.2-0.2 9.4-8.5 11.2-12 3.3-6.1 6.3-17.5 6.3-17.5z" />
						<path id="&lt;Path&gt;" class="s1"
							d="m1082.2 1248.8c0 0 12.3 3.1 18.5 3.7 6.3 0.6 14.3-9.1 18.8-7.3 4.9 2.1 7.6 32.9 7.6 32.9 0 0-78.5 3.6-97-1.6-7.4-2 27.7-18.3 52.1-27.7z" />
						<path id="&lt;Path&gt;" class="s11"
							d="m1014.2 1226c0 0-5 26.4-5 26.5-0.3 3.4-0.2 12.2-0.9 15.2-2.8 11.3-49.5-14.4-37-16.6 1.1-0.2 8.4-10.3 10.3-13.8 3.2-6.1 6.2-17.5 6.2-17.5z" />
						<path id="&lt;Path&gt;" class="s1"
							d="m974 1248.8c0 0 12.2 3.1 18.5 3.7 6.2 0.6 14.3-9.1 18.8-7.3 4.9 2.1 7.6 32.9 7.6 32.9 0 0-78.5 3.6-97.1-1.6-7.3-2 27.7-18.3 52.2-27.7z" />
						<path id="&lt;Path&gt;" class="s10"
							d="m1286.4 961.1l-142.8-33.1c0 0-64.1-17-79.5 2.9-15.5 19.9-81.1 294.2-81.1 294.2 0 0 33.8 2.9 36 1.5l79.3-140.7c7.5-13.4 12.5-28.1 14.6-43.3l5.6-40.3 58.2 16.9c0 0 67 14.8 94.2-2.2 27.3-16.9 15.5-55.9 15.5-55.9z" />
						<path id="&lt;Path&gt;" class="s9"
							d="m1231.5 714.9c-2.2 0.1-8.4 2.1-17.4 19.2-11.6 21.7-28.4 87.4-28.4 87.4l50.3 18.7 6.5-13.7 10.6-105.6c0 0-20.9-6-21.6-6z" />
						<path id="&lt;Path&gt;" class="s4"
							d="m1298.1 705.4c-14.4 0-50 4.2-66.6 9.5 0 0-12.1 104 11 183.1 5.1 17.7-4.3 73.4-4.3 73.4l149.2-2c0 0-17.7-134.6-11-156.3 6.7-21.7 6.8-97.5 6.8-97.5 0 0-1-0.2-33.5-5.8-15.2-2.6-36.2-4.4-51.6-4.4z" />
						<path id="&lt;Path&gt;" class="s12"
							d="m1384.8 727.2c-13.9-5.3-20.7 120-22.6 171.6-24.7 2.4-67.8 0-78.5-0.8-5-0.4-16.7-4.6-21.7-5.3-5.1-0.6-9.8-1-12.3-0.6-0.9 0.2-26.7 10.7-28.9 13-2.7 2.9-10.1 10.1-8.9 13.2 1.3 3.1 14.2-8.7 14.2-8.7l6.4-3.6c-7.9 7.7-23 17.8-20.8 21.5 2.1 3.6 15.7-6.7 25.4-13.6-8.3 7.4-18.6 20.8-16.3 22.9 2.2 1.8 13.9-13.6 26.4-18.1 4.7-1.6 9.3 2.9 12.9 3.5 2.7 0.4 6.9 1.3 9.5 0.5l12.6-1.2c4.6 0.4 5.7 0.5 10.3 1.5 5.5 1.2 14.3 2.4 21.2 4 39.8 9.7 53 14.2 65.2 14.2 36.8 0 38.9-201.7 5.9-214z" />
						<path id="&lt;Path&gt;" class="s9"
							d="m1411.3 844.8c2.6-52.9 2.3-118-27.5-129.1-11.7-4.3-32.3 22-28.6 130.1 15.8 1.3 39.1 2.4 56.1-1z" />
						<path id="&lt;Path&gt;" class="s0"
							d="m1080.4 812.5l140.6 9.2c3.7 0.2 6.9 2.7 8.1 6.2l36.4 108.4 77.5 5.1c2.2 0.1 3.8 2 3.7 4.2-0.2 2.1-2 3.8-4.2 3.6l-220.6-14.4c-6.1-0.4-11.3-4.3-13.5-10l-37.2-99.9c-2.3-6.3 2.6-12.8 9.2-12.4z" />
						<g id="&lt;Group&gt;">
							<path id="&lt;Path&gt;" class="s4"
								d="m1150.5 879.5c0.2 4.8 3.9 8.5 8.1 8.3 4.3-0.2 7.5-4.4 7.2-9.2-0.3-4.8-3.9-8.6-8.2-8.3-4.2 0.2-7.4 4.3-7.1 9.2z" />
						</g>
						<path id="&lt;Path&gt;" class="s2"
							d="m1387.3 966l-155.6-26.8c0 0-67.3-10.3-82.7 9.6-15.5 19.9-60.4 277.5-60.4 277.5 0 0 33.9 3 36.1 1.5 1.7-1.1 42.7-87 61.1-125.7 5.8-12.3 9.9-25.4 12.2-38.8l5.9-35 19.6 6.7c34.4 11.8 71.1 16 107.2 11.5 15.1-1.9 29.3-5.1 38-10.6 27.2-16.9 18.6-69.9 18.6-69.9z" />
						<path id="&lt;Path&gt;" class="s12"
							d="m1292.2 686.4l-3 22.5c0 0-6.8 32.4 2 38.6 8.7 6.3 37.1-39.5 37.1-39.5l-3-57z" />
						<path id="&lt;Path&gt;" class="s13"
							d="m1326.2 669.5c-7.2 19.4-24.3 31.3-36.5 36l2.5-19.1 33.1-35.4z" />
						<path id="&lt;Path&gt;" class="s12"
							d="m1294 589.1c-18.5-3-35.1 11.8-34.6 30.3 0.2 8 0.9 18 2.5 28.8 4.1 25.9 21.8 48.8 33.6 46.7 11.7-2 41.3-24.4 36-61.3-3.2-22.8-18.1-41.4-37.5-44.5z" />
						<path id="&lt;Path&gt;" class="s12"
							d="m1323.4 638c1 5.7 5.6 9.7 10.2 8.9 4.7-0.8 7.7-6.1 6.7-11.8-1-5.7-5.6-9.7-10.2-8.9-4.7 0.8-7.7 6.1-6.7 11.8z" />
						<path id="&lt;Path&gt;" class="s10"
							d="m1330.1 626.2c0 0-14.2 3.5-19.5-5.6-5.3-9.1-24.1-28.7-48.1-20.6-23.9 8.2 21.1-19.8 23-19.8 1.9 0 24.9-0.1 24.9-0.1 0 0 17.7 14.5 18.4 16.1 0.6 1.6 5.7 19 5.7 19z" />
						<path id="1" class="s14"
							d="m1297.8 643.9c-1.3 0-2.4-1.6-2.4-3.6 0-2.1 1.1-3.7 2.4-3.7 1.3 0 2.4 1.6 2.4 3.7 0 2-1.1 3.6-2.4 3.6z" />
						<path id="3" class="s15"
							d="m1285.2 643.4c-0.9-0.1-6.5 18-6.3 18.8 0.1 0.8 2.8 1.1 4.3 1.2 1.5 0 3.9 0.3 4.4-1 0.4-1.4-1.4-18.8-2.4-19z" />
						<path id="4" class="s14"
							d="m1297.9 665.8c2.3-0.5 4.5-1.5 6.4-2.8 1.9-1.4 3.6-3.1 4.8-5.1q0.1-0.2 0-0.5 0-0.2-0.2-0.3-0.3-0.1-0.5-0.1-0.2 0.1-0.4 0.3c-1.3 2.2-3.2 4-5.4 5.3-2.1 1.3-4.6 2.1-7.1 2.3q-0.3 0.1-0.4 0.3-0.2 0.2-0.1 0.4 0 0.1 0 0.2 0.1 0.1 0.2 0.2 0.1 0.1 0.2 0.1 0.1 0 0.2 0 1.2-0.1 2.3-0.3z" />
						<path id="5" class="s14"
							d="m1310.4 630.3q0.3-0.2 0.5-0.4 0.2-0.3 0.3-0.6 0-0.3-0.1-0.6-0.2-0.3-0.5-0.5c-1.5-1.1-3.2-1.8-5.1-2.1-1.8-0.3-3.7-0.1-5.5 0.5q-0.2 0.1-0.4 0.3-0.1 0.1-0.2 0.4-0.1 0.2-0.1 0.4 0 0.2 0.1 0.5c0.1 0.3 0.4 0.5 0.6 0.6 0.3 0.1 0.7 0.1 0.9 0 1.4-0.5 2.9-0.6 4.4-0.3 1.4 0.2 2.8 0.8 4 1.7q0.2 0.2 0.5 0.2 0.4 0 0.6-0.1z" />
						<path id="5" class="s14"
							d="m1267.3 634.3q0.3 0 0.6-0.1 0.2-0.1 0.4-0.3c0.9-1.3 2.1-2.3 3.4-3 1.4-0.7 2.8-1.1 4.4-1.1q0.2 0 0.4-0.1 0.2-0.1 0.4-0.2 0.2-0.2 0.3-0.4 0.1-0.2 0.1-0.5 0-0.2 0-0.4-0.1-0.2-0.3-0.4-0.1-0.2-0.3-0.3-0.3-0.1-0.5-0.1c-1.9 0-3.8 0.5-5.5 1.4-1.7 0.8-3.1 2.1-4.2 3.6q-0.2 0.2-0.2 0.4-0.1 0.3-0.1 0.5 0.1 0.2 0.2 0.4 0.1 0.2 0.3 0.4 0.3 0.2 0.6 0.2z" />
						<path id="2" class="s14"
							d="m1275.1 646.3c-1.4 0-2.4-1.6-2.4-3.6 0-2 1-3.7 2.4-3.7 1.3 0 2.4 1.7 2.4 3.7 0 2-1.1 3.6-2.4 3.6z" />
					</g>
					<g id="&lt;Group&gt;">
						<path id="&lt;Path&gt;" class="s9"
							d="m253 517.7l-3.9 46.6-27-30.4-87.6-71.8 74.7 23.6c0 0 36.7 17.8 38.4 20.2 1.7 2.3 5.4 11.8 5.4 11.8z" />
						<path id="&lt;Path&gt;" class="s4" d="m292.6 497.7l-158.1-35.6 118.5 55.6z" />
						<path id="&lt;Path&gt;" class="s4" d="m192.1 552.2l48.8-24.3-106.4-65.8z" />
					</g>
					<g id="&lt;Group&gt;">
						<g id="&lt;Group&gt;">
							<path id="&lt;Path&gt;" class="s4"
								d="m271.4 543.6c-7.3-2.7-12.7-3.3-12.7-3.3l0.4-3.4c0.2 0 5.8 0.6 13.5 3.5z" />
						</g>
						<g id="&lt;Group&gt;">
							<path id="&lt;Compound Path&gt;" class="s4"
								d="m347.2 821.6c-6.6-6-12.5-12.4-17.6-19.2l2.7-2.1c5 6.6 10.8 12.9 17.2 18.8zm-31.1-41.5c-1.7-3.6-3.3-7.3-4.7-11.1-1.6-4.3-3-8.8-4.2-13.4l3.3-0.8c1.2 4.4 2.5 8.8 4.1 13 1.3 3.7 2.9 7.3 4.6 10.8zm-9.9-50.4l-3.4 0.3c-0.8-8.2-1-16.7-0.8-25.9l3.4 0.1c-0.2 9.1 0 17.4 0.8 25.5zm0.8-51.1l-3.4-0.4c0.8-7.5 1.8-15.6 3.2-25.6l3.4 0.5c-1.4 9.9-2.4 18-3.2 25.5zm7-51l-3.4-0.5 0.1-0.2c1.3-8.9 1.7-17.4 1.2-25.1l3.4-0.2c0.5 8 0.1 16.7-1.3 25.8zm-7.4-50.3c-3.2-7.9-7.9-14.8-14-20.5l2.4-2.5c6.4 6 11.3 13.3 14.8 21.7z" />
						</g>
					</g>
				</g>
			</g>
		</g>
	</g>
</svg>