<svg version="1.2" xmlns="http://www.w3.org/2000/svg" viewBox="0 0 573 339" width="573" height="339">
	<title>611c14f4bf91b08d4cd41b35_image-2-home-hero-marketing-template-svg</title>
	<defs>
		<filter x="-50%" y="-50%" width="200%" height="200%" id="f1" ><feDropShadow dx="0" dy="0" stdDeviation="12.083333333333334" flood-color="#3f80fd" flood-opacity=".1"/></filter>
		<filter x="-50%" y="-50%" width="200%" height="200%" id="f2" ><feDropShadow dx="0" dy="0" stdDeviation="12.083333333333334" flood-color="#f4263e" flood-opacity=".1"/></filter>
		<filter x="-50%" y="-50%" width="200%" height="200%" id="f3" ><feDropShadow dx="0" dy="0" stdDeviation="12.083333333333334" flood-color="#6a35ff" flood-opacity=".1"/></filter>
	</defs>
	<style>
		.s0 { opacity: 0;fill: #ffffff } 
		.s1 { filter: url(#f1);fill: #ffffff } 
		.s2 { fill: #eff0f7 } 
		.s3 { opacity: 0;fill: #3f80fd } 
		.s4 { fill: #3f80fd } 
		.s5 { filter: url(#f2);fill: #ffffff } 
		.s6 { filter: url(#f3);fill: #ffffff } 
		.s7 { opacity: 0;fill: #6a35ff } 
		.s8 { fill: #ffffff } 
		.s9 { fill: #6a35ff } 
		.s10 { opacity: .9;fill: #d9dbe9 } 
		.s11 { fill: #d9dbe9 } 
		.s12 { opacity: .5;fill: #d9dbe9 } 
		.s13 { opacity: .1;fill: #f4263e } 
		.s14 { fill: none;stroke: #f4263e;stroke-linecap: round;stroke-opacity: 0;stroke-width: 3.2 } 
		.s15 { fill: none;stroke: #f4263e;stroke-linecap: round;stroke-width: 3.2 } 
	</style>
	<g id="Layer">
		<path id="Layer" class="s0" d="m521.9 71.9h-139.7c-17 0-30.8 13.8-30.8 30.8v65.3c0 17 13.8 30.8 30.8 30.8h139.7c17 0 30.8-13.8 30.8-30.8v-65.3c0-17-13.8-30.8-30.8-30.8z"/>
	</g>
	<path id="Layer" class="s1" d="m521.9 71.9h-139.7c-17 0-30.8 13.8-30.8 30.8v65.3c0 17 13.8 30.8 30.8 30.8h139.7c17 0 30.8-13.8 30.8-30.8v-65.3c0-17-13.8-30.8-30.8-30.8z"/>
	<path id="Layer" class="s2" d="m528.2 99.1h-152.2c-2.3 0-4.2 1.9-4.2 4.2 0 2.3 1.9 4.2 4.2 4.2h152.2c2.3 0 4.2-1.9 4.2-4.2 0-2.3-1.9-4.2-4.2-4.2z"/>
	<g id="Layer">
		<path id="Layer" class="s3" d="m431.3 99.1h-55.3c-2.3 0-4.2 1.9-4.2 4.2 0 2.3 1.9 4.2 4.2 4.2h55.3c2.3 0 4.1-1.9 4.1-4.2 0-2.3-1.8-4.2-4.1-4.2z"/>
	</g>
	<path id="Layer" class="s4" d="m431.4 99.1h-55.2c-2.3 0-4.2 1.9-4.2 4.2 0 2.3 1.9 4.2 4.2 4.2h55.2c2.4 0 4.2-1.9 4.2-4.2 0-2.3-1.8-4.2-4.2-4.2z"/>
	<path id="Layer" class="s2" d="m528.2 115.1h-152.2c-2.3 0-4.2 1.9-4.2 4.2 0 2.3 1.9 4.2 4.2 4.2h152.2c2.3 0 4.2-1.9 4.2-4.2 0-2.3-1.9-4.2-4.2-4.2z"/>
	<g id="Layer">
		<path id="Layer" class="s3" d="m511.8 115.1h-135.8c-2.3 0-4.2 1.9-4.2 4.2 0 2.3 1.9 4.2 4.2 4.2h135.8c2.3 0 4.2-1.9 4.2-4.2 0-2.3-1.9-4.2-4.2-4.2z"/>
	</g>
	<path id="Layer" class="s4" d="m512 115.1h-135.8c-2.3 0-4.2 1.9-4.2 4.2 0 2.3 1.9 4.2 4.2 4.2h135.8c2.3 0 4.1-1.9 4.1-4.2 0-2.3-1.8-4.2-4.1-4.2z"/>
	<path id="Layer" class="s2" d="m528.2 131.2h-152.2c-2.3 0-4.2 1.8-4.2 4.2 0 2.3 1.9 4.1 4.2 4.1h152.2c2.3 0 4.2-1.8 4.2-4.1 0-2.4-1.9-4.2-4.2-4.2z"/>
	<g id="Layer">
		<path id="Layer" class="s3" d="m422.8 131.1h-46.6c-2.3 0-4.2 1.8-4.2 4.2 0 2.3 1.9 4.1 4.2 4.1h46.6c2.4 0 4.2-1.8 4.2-4.1 0-2.4-1.8-4.2-4.2-4.2z"/>
	</g>
	<path id="Layer" class="s4" d="m422.9 131.1h-46.7c-2.3 0-4.2 1.8-4.2 4.2 0 2.3 1.9 4.1 4.2 4.1h46.7c2.4 0 4.2-1.8 4.2-4.1 0-2.4-1.8-4.2-4.2-4.2z"/>
	<path id="Layer" class="s2" d="m528.2 147.2h-152.2c-2.3 0-4.2 1.9-4.2 4.2 0 2.3 1.9 4.2 4.2 4.2h152.2c2.3 0 4.2-1.9 4.2-4.2 0-2.3-1.9-4.2-4.2-4.2z"/>
	<g id="Layer">
		<path id="Layer" class="s3" d="m485.7 147.2h-109.7c-2.3 0-4.2 1.9-4.2 4.2 0 2.3 1.9 4.2 4.2 4.2h109.7c2.3 0 4.2-1.9 4.2-4.2 0-2.3-1.9-4.2-4.2-4.2z"/>
	</g>
	<path id="Layer" class="s4" d="m485.7 147h-109.7c-2.3 0-4.2 1.9-4.2 4.2 0 2.3 1.9 4.2 4.2 4.2h109.7c2.3 0 4.2-1.9 4.2-4.2 0-2.3-1.9-4.2-4.2-4.2z"/>
	<path id="Layer" class="s2" d="m528.2 163.3h-152.2c-2.3 0-4.2 1.8-4.2 4.1 0 2.4 1.9 4.2 4.2 4.2h152.2c2.3 0 4.2-1.8 4.2-4.2 0-2.3-1.9-4.1-4.2-4.1z"/>
	<g id="Layer">
		<path id="Layer" class="s3" d="m444.4 163.3h-68.4c-2.3 0-4.2 1.8-4.2 4.1 0 2.4 1.9 4.2 4.2 4.2h68.4c2.4 0 4.2-1.8 4.2-4.2 0-2.3-1.8-4.1-4.2-4.1z"/>
	</g>
	<path id="Layer" class="s4" d="m444.6 163.3h-68.4c-2.3 0-4.2 1.8-4.2 4.1 0 2.4 1.9 4.2 4.2 4.2h68.4c2.4 0 4.2-1.8 4.2-4.2 0-2.3-1.8-4.1-4.2-4.1z"/>
	<g id="Layer">
		<path id="Layer" class="s0" d="m283.8 14h-131c-14.4 0-26 11.6-26 26v53.7c0 14.4 11.6 26 26 26h131c14.4 0 26-11.6 26-26v-53.7c0-14.4-11.6-26-26-26z"/>
	</g>
	<path id="Layer" class="s5" d="m283.8 14h-131c-14.4 0-26 11.6-26 26v53.7c0 14.4 11.6 26 26 26h131c14.4 0 26-11.6 26-26v-53.7c0-14.4-11.6-26-26-26z"/>
	<g id="Layer">
		<g id="Layer">
			<path id="Layer" class="s0" d="m145.1 153.4l-94.8 6.7c-13.2 0.9-23.1 12.3-22.2 25.5l7.6 108.8c0.9 13.2 12.4 23.2 25.6 22.3l94.7-6.7c13.2-0.9 23.2-12.3 22.2-25.5l-7.6-108.8c-0.9-13.2-12.3-23.2-25.5-22.3z"/>
		</g>
		<path id="Layer" class="s6" d="m145 153.1l-94.7 6.6c-13.2 0.9-23.2 12.4-22.2 25.6l7.6 108.7c0.9 13.2 12.3 23.2 25.5 22.3l94.8-6.6c13.2-1 23.1-12.4 22.2-25.6l-7.6-108.8c-0.9-13.2-12.4-23.2-25.6-22.2z"/>
		<g id="Layer">
			<path id="Layer" class="s0" d="m59 200.3c4.1-0.3 7.3-3.9 7-8.1-0.3-4.1-3.9-7.3-8.1-7-4.1 0.3-7.3 3.9-7 8.1 0.3 4.1 3.9 7.3 8.1 7z"/>
			<path id="Layer" fill-rule="evenodd" class="s7" d="m64.3 185.9c1.8 1.6 2.9 3.8 3.1 6.1 0.1 1.8-0.3 3.6-1.2 5.1-0.9 1.6-2.2 2.8-3.8 3.6-1.5 0.8-3.3 1.1-5.1 0.9-1.7-0.3-3.4-1-4.7-2.2-1.4-1.1-2.3-2.7-2.8-4.4-0.5-1.7-0.4-3.5 0.2-5.2 0.5-1.6 1.6-3.1 3-4.2 1.4-1.1 3.1-1.7 4.8-1.9 2.4-0.1 4.7 0.7 6.5 2.2zm-0.8 3.3q0.1-0.1 0-0.3 0-0.1-0.1-0.3-0.1-0.1-0.2-0.2-0.1-0.1-0.3-0.1-0.1 0-0.3 0-0.1 0.1-0.3 0.2-0.1 0.1-0.2 0.2l-4.2 6.6-3.2-2.2q-0.1-0.1-0.2-0.1-0.2-0.1-0.3 0-0.3 0-0.5 0.3-0.2 0.2-0.1 0.5 0 0.2 0.1 0.3 0.1 0.1 0.2 0.2l3.8 2.7q0.2 0.1 0.3 0.1 0.2 0 0.3 0 0.2 0 0.3-0.1 0.1-0.1 0.2-0.2l4.6-7.3q0.1-0.1 0.1-0.3z"/>
		</g>
		<path id="Layer" class="s8" d="m59 200.3c4.2-0.3 7.3-3.9 7-8.1-0.2-4.1-3.9-7.3-8-7-4.2 0.3-7.3 3.9-7 8.1 0.3 4.1 3.9 7.3 8 7z"/>
		<path id="Layer" fill-rule="evenodd" class="s9" d="m64.4 185.9c1.8 1.6 2.9 3.8 3 6.1 0.2 1.8-0.2 3.6-1.1 5.1-0.9 1.6-2.2 2.8-3.8 3.6-1.6 0.8-3.4 1.1-5.1 0.9-1.8-0.3-3.4-1-4.8-2.2-1.3-1.1-2.3-2.7-2.7-4.4-0.5-1.7-0.4-3.5 0.1-5.2 0.6-1.6 1.6-3.1 3-4.2 1.4-1.1 3.1-1.7 4.9-1.9 2.3-0.1 4.7 0.7 6.5 2.2zm-0.8 3.3q0-0.1 0-0.3 0-0.1-0.1-0.3-0.1-0.1-0.3-0.2-0.1-0.1-0.2-0.1-0.2 0-0.3 0-0.2 0.1-0.3 0.2-0.1 0.1-0.2 0.2l-4.2 6.6-3.2-2.2q-0.1-0.1-0.3-0.1-0.1-0.1-0.3 0-0.3 0-0.4 0.3-0.2 0.2-0.2 0.5 0.1 0.2 0.2 0.3 0 0.1 0.2 0.2l3.8 2.7q0.1 0.1 0.3 0.1 0.1 0 0.3 0 0.1 0 0.2-0.1 0.2-0.1 0.3-0.2l4.6-7.3q0-0.1 0.1-0.3z"/>
		<path id="Layer" class="s10" d="m146.2 182.3l-70.4 4.9c-2.2 0.2-3.8 2.1-3.7 4.3 0.2 2.2 2.1 3.8 4.3 3.7l70.4-5c2.2-0.1 3.8-2 3.7-4.2-0.2-2.2-2.1-3.9-4.3-3.7z"/>
		<g id="Layer">
			<path id="Layer" class="s0" d="m60.6 222.9c4.1-0.3 7.3-3.9 7-8-0.3-4.2-3.9-7.3-8.1-7-4.2 0.2-7.3 3.9-7 8 0.3 4.2 3.9 7.3 8.1 7z"/>
			<path id="Layer" fill-rule="evenodd" class="s7" d="m65.9 208.6c1.8 1.5 2.9 3.7 3.1 6.1 0.1 1.8-0.3 3.5-1.2 5.1-0.9 1.5-2.2 2.7-3.8 3.5-1.6 0.8-3.3 1.1-5.1 0.9-1.8-0.2-3.4-1-4.7-2.1-1.4-1.2-2.3-2.7-2.8-4.4-0.5-1.7-0.4-3.5 0.1-5.2 0.6-1.7 1.6-3.2 3-4.3 1.4-1 3.1-1.7 4.9-1.8 2.4-0.2 4.7 0.6 6.5 2.2zm-0.8 3.3q0-0.2 0-0.3 0-0.2-0.1-0.3-0.1-0.1-0.2-0.2-0.2-0.1-0.3-0.1-0.2-0.1-0.3 0-0.2 0-0.3 0.1-0.1 0.1-0.2 0.2l-4.2 6.6-3.2-2.2q-0.1-0.1-0.2-0.1-0.2 0-0.3 0-0.3 0.1-0.5 0.3-0.2 0.3-0.1 0.6 0 0.1 0.1 0.2 0.1 0.2 0.2 0.3l3.8 2.6q0.1 0.1 0.3 0.1 0.1 0.1 0.3 0 0.1 0 0.3-0.1 0.1-0.1 0.2-0.2l4.6-7.3q0.1-0.1 0.1-0.2z"/>
		</g>
		<path id="Layer" class="s8" d="m60.6 223.1c4.1-0.3 7.3-3.9 7-8.1-0.3-4.2-3.9-7.3-8.1-7-4.2 0.3-7.3 3.9-7 8.1 0.3 4.1 3.9 7.3 8.1 7z"/>
		<path id="Layer" fill-rule="evenodd" class="s9" d="m65.9 208.7c1.8 1.6 2.9 3.8 3.1 6.1 0.1 1.8-0.3 3.6-1.2 5.1-0.9 1.5-2.2 2.8-3.8 3.6-1.6 0.8-3.3 1.1-5.1 0.8-1.8-0.2-3.4-0.9-4.7-2.1-1.4-1.1-2.3-2.7-2.8-4.4-0.5-1.7-0.4-3.5 0.1-5.2 0.6-1.7 1.6-3.1 3-4.2 1.4-1.1 3.1-1.8 4.9-1.9 2.4-0.1 4.7 0.6 6.5 2.2zm-0.8 3.3q0-0.2 0-0.3 0-0.2-0.1-0.3-0.1-0.1-0.2-0.2-0.2-0.1-0.3-0.1-0.2 0-0.3 0-0.2 0.1-0.3 0.1-0.1 0.1-0.2 0.3l-4.2 6.6-3.2-2.2q-0.1-0.1-0.2-0.1-0.2-0.1-0.3 0-0.3 0-0.5 0.3-0.2 0.2-0.1 0.5 0 0.2 0.1 0.3 0.1 0.1 0.2 0.2l3.8 2.7q0.1 0 0.3 0.1 0.1 0 0.3 0 0.1-0.1 0.3-0.1 0.1-0.1 0.2-0.3l4.6-7.2q0.1-0.2 0.1-0.3z"/>
		<path id="Layer" class="s10" d="m120.8 206.8l-43.4 3c-2.2 0.2-3.8 2.1-3.7 4.3 0.2 2.2 2.1 3.9 4.3 3.7l43.4-3c2.2-0.2 3.8-2.1 3.7-4.3-0.2-2.2-2.1-3.8-4.3-3.7z"/>
		<path id="Layer" class="s8" d="m63.7 268.2c4.2-0.3 7.3-3.9 7-8-0.3-4.2-3.9-7.3-8-7.1-4.2 0.3-7.3 3.9-7 8.1 0.3 4.2 3.9 7.3 8 7z"/>
		<path id="Layer" fill-rule="evenodd" class="s11" d="m69.1 253.9c1.8 1.5 2.9 3.7 3 6.1 0.1 1.7-0.3 3.5-1.1 5-0.9 1.6-2.2 2.8-3.8 3.6-1.6 0.8-3.4 1.1-5.1 0.9-1.8-0.2-3.4-1-4.8-2.1-1.3-1.2-2.3-2.7-2.7-4.4-0.5-1.7-0.5-3.6 0.1-5.2 0.6-1.7 1.6-3.2 3-4.3 1.4-1.1 3.1-1.7 4.9-1.8 2.3-0.2 4.7 0.6 6.5 2.2zm-0.8 3.2q0-0.1 0-0.3-0.1-0.1-0.1-0.2-0.1-0.2-0.3-0.2-0.1-0.1-0.2-0.1-0.2-0.1-0.3 0-0.2 0-0.3 0.1-0.1 0.1-0.2 0.2l-4.2 6.6-3.2-2.2q-0.1-0.1-0.3-0.1-0.1 0-0.3 0-0.3 0.1-0.4 0.3-0.2 0.3-0.2 0.6 0.1 0.1 0.1 0.2 0.1 0.2 0.2 0.2l3.9 2.7q0.1 0.1 0.3 0.1 0.1 0 0.3 0 0.1 0 0.2-0.1 0.2-0.1 0.2-0.2l4.7-7.3q0-0.1 0.1-0.3z"/>
		<path id="Layer" class="s12" d="m124 252.1l-43.4 3c-2.2 0.2-3.9 2.1-3.7 4.3 0.1 2.2 2.1 3.9 4.3 3.7l43.3-3c2.2-0.2 3.9-2.1 3.8-4.3-0.2-2.2-2.1-3.9-4.3-3.7z"/>
		<g id="Layer">
			<path id="Layer" class="s0" d="m62.1 245.6c4.2-0.3 7.3-3.9 7.1-8.1-0.3-4.2-3.9-7.3-8.1-7-4.2 0.3-7.3 3.9-7 8.1 0.3 4.1 3.9 7.3 8 7z"/>
			<path id="Layer" fill-rule="evenodd" class="s7" d="m67.5 231.2c1.8 1.6 2.9 3.8 3 6.1 0.2 1.8-0.2 3.6-1.1 5.1-0.9 1.5-2.2 2.8-3.8 3.6-1.6 0.8-3.4 1.1-5.1 0.8-1.8-0.2-3.4-0.9-4.8-2.1-1.3-1.1-2.3-2.7-2.7-4.4-0.5-1.7-0.4-3.5 0.1-5.2 0.6-1.7 1.6-3.1 3-4.2 1.4-1.1 3.1-1.7 4.9-1.9 2.4-0.1 4.7 0.6 6.5 2.2zm-0.8 3.3q0-0.2 0-0.3 0-0.2-0.1-0.3-0.1-0.1-0.2-0.2-0.2-0.1-0.3-0.1-0.2 0-0.3 0-0.2 0.1-0.3 0.2-0.1 0-0.2 0.2l-4.2 6.6-3.2-2.2q-0.1-0.1-0.3-0.1-0.1-0.1-0.2 0-0.3 0-0.5 0.3-0.2 0.2-0.1 0.5 0 0.2 0.1 0.3 0 0.1 0.2 0.2l3.8 2.7q0.1 0 0.3 0.1 0.1 0 0.3 0 0.1-0.1 0.3-0.1 0.1-0.1 0.2-0.3l4.6-7.2q0.1-0.2 0.1-0.3z"/>
		</g>
		<path id="Layer" class="s8" d="m62.2 245.6c4.2-0.3 7.3-3.9 7-8.1-0.3-4.2-3.9-7.3-8-7-4.2 0.3-7.3 3.9-7 8.1 0.3 4.1 3.9 7.3 8 7z"/>
		<path id="Layer" fill-rule="evenodd" class="s9" d="m67.6 231.2c1.8 1.6 2.9 3.8 3 6.1 0.2 1.8-0.2 3.6-1.1 5.1-0.9 1.5-2.2 2.8-3.8 3.6-1.6 0.8-3.4 1.1-5.1 0.8-1.8-0.2-3.4-0.9-4.8-2.1-1.3-1.1-2.3-2.7-2.7-4.4-0.5-1.7-0.5-3.5 0.1-5.2 0.6-1.7 1.6-3.1 3-4.2 1.4-1.1 3.1-1.7 4.9-1.9 2.3-0.1 4.7 0.6 6.5 2.2zm-0.8 3.3q0-0.2 0-0.3-0.1-0.2-0.1-0.3-0.1-0.1-0.3-0.2-0.1-0.1-0.2-0.1-0.2 0-0.3 0-0.2 0.1-0.3 0.2-0.1 0-0.2 0.2l-4.2 6.6-3.2-2.2q-0.1-0.1-0.3-0.1-0.1-0.1-0.3 0-0.3 0-0.4 0.3-0.2 0.2-0.2 0.5 0.1 0.2 0.1 0.3 0.1 0.1 0.3 0.2l3.8 2.7q0.1 0 0.3 0.1 0.1 0 0.3 0 0.1-0.1 0.2-0.1 0.2-0.1 0.2-0.3l4.7-7.2q0-0.2 0.1-0.3z"/>
		<path id="Layer" class="s10" d="m149.4 227.6l-70.4 4.9c-2.2 0.1-3.8 2.1-3.7 4.3 0.2 2.2 2.1 3.8 4.3 3.7l70.3-5c2.2-0.1 3.9-2 3.8-4.2-0.2-2.2-2.1-3.9-4.3-3.7z"/>
		<path id="Layer" class="s8" d="m65.3 290.9c4.2-0.3 7.3-3.9 7-8.1-0.3-4.2-3.9-7.3-8-7-4.2 0.3-7.3 3.9-7.1 8.1 0.3 4.1 3.9 7.2 8.1 7z"/>
		<path id="Layer" fill-rule="evenodd" class="s11" d="m70.6 276.5c1.8 1.6 2.9 3.8 3.1 6.1 0.1 1.8-0.3 3.6-1.1 5.1-0.9 1.5-2.2 2.8-3.8 3.6-1.6 0.8-3.4 1.1-5.2 0.8-1.7-0.2-3.4-0.9-4.7-2.1-1.3-1.2-2.3-2.7-2.8-4.4-0.4-1.7-0.4-3.5 0.2-5.2 0.6-1.7 1.6-3.1 3-4.2 1.4-1.1 3.1-1.8 4.9-1.9 2.3-0.1 4.7 0.6 6.4 2.2zm-0.7 3.3q0-0.2 0-0.3-0.1-0.2-0.2-0.3 0-0.1-0.2-0.2-0.1-0.1-0.3-0.1-0.1 0-0.3 0-0.1 0-0.2 0.1-0.1 0.1-0.2 0.3l-4.2 6.6-3.2-2.2q-0.1-0.1-0.3-0.2-0.1 0-0.3 0-0.3 0.1-0.5 0.4-0.1 0.2-0.1 0.5 0 0.2 0.1 0.3 0.1 0.1 0.2 0.2l3.9 2.6q0.1 0.1 0.2 0.2 0.2 0 0.3 0 0.2-0.1 0.3-0.2 0.1 0 0.2-0.2l4.6-7.2q0.1-0.2 0.2-0.3z"/>
		<path id="Layer" class="s12" d="m152.6 273.1l-70.4 4.9c-2.2 0.2-3.9 2.1-3.7 4.3 0.1 2.2 2.1 3.9 4.3 3.7l70.3-4.9c2.2-0.2 3.9-2.1 3.7-4.3-0.1-2.2-2-3.8-4.2-3.7z"/>
		<g id="Layer">
			<path id="Layer" class="s0" d="m235.7 208.8l-79.3-5.5c-13.2-1-24.6 9-25.6 22.2l-7.4 107c-1 13.2 9 24.7 22.2 25.6l79.3 5.5c13.2 0.9 24.6-9 25.5-22.2l7.5-107c0.9-13.2-9-24.7-22.2-25.6z"/>
		</g>
	</g>
	<path id="Layer" class="s13" d="m250.4 59.2c-23.4-13.2-11.8 32.5-46.4 11.2-29.8-18.4-34.2 18.4-50.5 30.1-2.6 1.8-6.2 7.5-9.4 7.5l144.1-0.7c2.4 0 4.4-2 4.4-4.4v-77.2c-13.2 4.6-18.8 46.7-42.2 33.5z"/>
	<g id="Layer">
		<path id="Layer" class="s14" d="m145 105.2c23.9 0 25.1-55.6 59.4-35.6 34.3 20.1 22-24.8 45.3-12.4 23.3 12.4 28.8-27.1 41.9-31.5"/>
	</g>
	<path id="Layer" class="s15" d="m145 105.2c23.9 0 25.1-55.6 59.4-35.6 34.3 20.1 22-24.8 45.3-12.4 23.3 12.4 28.8-27.1 41.9-31.5"/>
</svg>